<svg xmlns="http://www.w3.org/2000/svg" width="24" height="24" viewBox="0 0 24 24">
    <g fill="none" fill-rule="evenodd">
        <g fill="#000" fill-rule="nonzero">
            <g>
                <path d="M12 .296C6.114.296 1.098 4.565.155 10.374c-.943 5.81 2.467 11.446 8.05 13.307.6.105.825-.255.825-.57 0-.285-.015-1.23-.015-2.235-3.015.555-3.795-.735-4.035-1.41-.266-.656-.688-1.238-1.23-1.695-.42-.225-1.02-.78-.015-.795.779.085 1.467.544 1.845 1.23.331.596.886 1.035 1.542 1.22.656.186 1.358.103 1.953-.23.052-.61.324-1.18.765-1.605-2.67-.3-5.46-1.335-5.46-5.925-.017-1.193.423-2.346 1.23-3.225-.367-1.036-.324-2.174.12-3.18 0 0 1.005-.315 3.3 1.23 1.964-.54 4.036-.54 6 0 2.295-1.56 3.3-1.23 3.3-1.23.444 1.006.487 2.144.12 3.18.81.877 1.25 2.032 1.23 3.225 0 4.605-2.805 5.625-5.475 5.925.58.587.875 1.398.81 2.22 0 1.605-.015 2.895-.015 3.3 0 .315.225.69.825.57 5.573-1.876 8.967-7.513 8.018-13.317C22.893 4.561 17.88.3 12 .296z" transform="translate(-1203 -68) translate(1203 68)"/>
            </g>
        </g>
    </g>
</svg>
