<svg xmlns="http://www.w3.org/2000/svg" width="48" height="48" viewBox="0 0 48 48">
    <g fill="none" fill-rule="evenodd">
        <circle cx="24" cy="24" r="24" fill="#FFF"/>
        <path fill="#42A1FF" fill-rule="nonzero" d="M19.527 28.941l2.047-3.53H13.45v3.53h6.078zm3.667 0h13.86c.198 0 .358.158.358.353v2.118c0 .195-.16.353-.358.353H10.946c-.198 0-.358-.158-.358-.353V16.588c0-.195.16-.353.358-.353h15.952l1.616-2.786H15.337c-.198 0-.358-.158-.358-.353v-2.155c0-.195.16-.353.358-.353h17.787c.197 0 .357.158.357.353 0 .061-.016.122-.047.175l-2.936 5.12h6.556c.198 0 .358.157.358.352v2.118c0 .195-.16.353-.358.353H13.45v3.53h9.763l1.024-1.765h3.624l-4.666 8.117zm-2.637 4.588l-.587 1.022h13.05c.198 0 .358.158.358.353v2.155c0 .195-.16.353-.357.353H15.234c-.198 0-.358-.158-.358-.353 0-.061.017-.122.047-.175l1.245-2.155.015-.024.682-1.176h3.692zm8.373-10.94h8.124c.198 0 .358.157.358.352v2.118c0 .195-.16.353-.358.353h-9.747l1.623-2.824z"/>
    </g>
</svg>
